<svg width="256" height="256" viewBox="0 0 256 256" xmlns="http://www.w3.org/2000/svg" preserveAspectRatio="xMidYMid"><path fill="#F26522" d="M0 0h256v256H0z"/><path d="M105.54 159.96h39.15V149.3h-27.06v-16.5h24.95v-10.65h-24.95v-15.46h27.06V96.04h-39.15v63.92zM197 142.59c0-12.77-.87-15.55-18.04-19.68-11.04-2.68-11.23-2.88-11.23-10.17 0-5.57 1.44-7.3 9.6-7.3 5.56 0 11.8.77 17.08 1.93l1.34-10.18a87.22 87.22 0 0 0-18.62-2.1c-16.22 0-21.5 5.75-21.5 17.36 0 13.53 2.12 16.51 17.57 19.96 11.51 2.5 11.7 3.08 11.7 10.18 0 6.14-1.43 7.96-10.17 7.96-6.33 0-12.09-1.15-18.04-2.97l-2.11 9.5c4.22 2.02 12.67 3.84 19.96 3.84 18.9 0 22.46-6.24 22.46-18.33zm22.26-23.8c0-9.8 4.7-11.71 16.03-11.71 2.02 0 6.24.29 9.02.86l.77-9.79A55.67 55.67 0 0 0 234.04 97c-17.46 0-26.48 5.38-26.48 22.27v23.32c0 11.03 3.26 18.33 19.77 18.33 15.06 0 19.67-7.49 19.67-17.47v-4.6c0-11.04-4.7-15.84-16.32-15.84-4.12 0-8.06.58-11.42 1.73v-5.95zm9.6 14.3c4.22 0 6.43 1.44 6.43 6.04v4.7c0 4.9-1.92 7.01-7.96 7.01-6.05 0-8.07-1.73-8.07-7v-8.74a25.15 25.15 0 0 1 9.6-2.01z" fill="#FFF"/></svg>